<svg width="40" height="40" viewBox="0 0 40 40" fill="none" xmlns="http://www.w3.org/2000/svg" role="img" aria-labelledby="tiktok-title">
  <title id="tiktok-title">TikTok</title>
  <rect width="40" height="40" rx="10" fill="#050505"/>
  <path d="M24.7 9.5c.5 3.3 2.4 5.4 5.8 5.7v4.5c-2.1.1-4-.5-5.7-1.7v8.6c0 4.4-2.6 7.5-7.1 7.5-4 0-7.1-2.6-7.1-6.5 0-4.5 3.5-7 7.9-6.4v4.6c-1.9-.6-3.4.3-3.4 1.9 0 1.4 1.1 2.2 2.4 2.2 1.6 0 2.6-1 2.6-3V9.5h4.6Z" fill="#25F4EE"/>
  <path d="M26 9.5c.5 3.3 2.4 5.4 5.8 5.7v4.5c-2.1.1-4-.5-5.7-1.7v8.6c0 4.4-2.6 7.5-7.1 7.5-2.1 0-4-.7-5.2-1.9 1.1.7 2.4 1.1 3.9 1.1 4.5 0 7.1-3.1 7.1-7.5v-8.6c1.7 1.2 3.6 1.8 5.7 1.7v-2.9c-2.3-.7-3.6-2.6-4-6.5H26Z" fill="#FE2C55"/>
  <path d="M24.7 9.5c.5 3.3 2.4 5.4 5.8 5.7v3.7c-2.1.1-4-.5-5.7-1.7v8.6c0 4.4-2.6 7.5-7.1 7.5-4 0-7.1-2.6-7.1-6.5 0-4.5 3.5-7 7.9-6.4v4.6c-1.9-.6-3.4.3-3.4 1.9 0 1.4 1.1 2.2 2.4 2.2 1.6 0 2.6-1 2.6-3V9.5h4.6Z" fill="white"/>
</svg>
